<?xml version="1.0" encoding="UTF-8"?>
<svg xmlns="http://www.w3.org/2000/svg" xmlns:xlink="http://www.w3.org/1999/xlink" width="224.87999pt" height="225pt" viewBox="0 0 224.87999 225" version="1.2">
<defs>
<clipPath id="clip1">
  <path d="M 46.488281 80.503906 L 187.375 80.503906 L 187.375 202.4375 L 46.488281 202.4375 Z M 46.488281 80.503906 "/>
</clipPath>
<clipPath id="clip2">
  <path d="M 37.457031 22.546875 L 181 22.546875 L 181 196 L 37.457031 196 Z M 37.457031 22.546875 "/>
</clipPath>
</defs>
<g id="surface1">
<g clip-path="url(#clip1)" clip-rule="nonzero">
<path style=" stroke:none;fill-rule:nonzero;fill:rgb(0%,72.158813%,68.629456%);fill-opacity:1;" d="M 187.378906 80.648438 L 164.132812 80.648438 L 164.132812 202.4375 L 187.378906 202.4375 Z M 148.230469 107.171875 L 124.992188 107.171875 L 124.992188 202.4375 L 148.230469 202.4375 Z M 109.089844 126.570312 L 85.851562 126.570312 L 85.851562 202.4375 L 109.089844 202.4375 Z M 69.949219 202.4375 L 46.707031 202.4375 L 46.707031 141.253906 L 69.949219 141.253906 L 69.949219 202.4375 "/>
</g>
<g clip-path="url(#clip2)" clip-rule="nonzero">
<path style=" stroke:none;fill-rule:nonzero;fill:rgb(33.729553%,33.729553%,33.329773%);fill-opacity:1;" d="M 170.21875 27.53125 C 160.429688 42.355469 143.414062 62.257812 116.429688 76.90625 C 89.339844 91.625 63.214844 95.117188 44.476562 95.117188 C 42.457031 95.117188 40.550781 95.082031 38.71875 95.007812 C 37.996094 94.972656 37.457031 94.398438 37.492188 93.679688 C 37.53125 92.957031 38.140625 92.453125 38.824219 92.453125 C 57.390625 93.175781 85.742188 90.691406 115.242188 74.675781 C 142.40625 59.921875 159.277344 39.730469 168.808594 25.082031 L 147.042969 25.082031 C 146.324219 25.082031 145.785156 24.507812 145.785156 23.824219 C 145.785156 23.140625 146.363281 22.5625 147.042969 22.5625 L 171.507812 22.5625 C 172.226562 22.5625 172.769531 23.140625 172.769531 23.824219 L 172.769531 48.691406 C 172.769531 49.410156 172.195312 49.953125 171.507812 49.953125 C 170.828125 49.953125 170.25 49.375 170.25 48.691406 L 170.25 27.53125 Z M 178.164062 193.007812 L 157.476562 193.007812 L 157.476562 73.777344 L 178.164062 73.777344 Z M 179.425781 71.222656 L 156.1875 71.222656 C 155.46875 71.222656 154.925781 71.796875 154.925781 72.480469 L 154.925781 194.269531 C 154.925781 194.988281 155.5 195.527344 156.1875 195.527344 L 179.425781 195.527344 C 180.144531 195.527344 180.683594 194.953125 180.683594 194.269531 L 180.683594 72.515625 C 180.722656 71.796875 180.144531 71.222656 179.425781 71.222656 Z M 139.023438 193.007812 L 118.335938 193.007812 L 118.335938 100.300781 L 139.023438 100.300781 Z M 140.28125 97.746094 L 117.042969 97.746094 C 116.324219 97.746094 115.785156 98.320312 115.785156 99.003906 L 115.785156 194.269531 C 115.785156 194.988281 116.355469 195.527344 117.042969 195.527344 L 140.28125 195.527344 C 141 195.527344 141.539062 194.953125 141.539062 194.269531 L 141.539062 99.003906 C 141.574219 98.320312 141 97.746094 140.28125 97.746094 Z M 99.882812 193.007812 L 79.195312 193.007812 L 79.195312 119.699219 L 99.882812 119.699219 Z M 101.140625 117.144531 L 77.894531 117.144531 C 77.175781 117.144531 76.636719 117.71875 76.636719 118.402344 L 76.636719 194.269531 C 76.636719 194.988281 77.214844 195.527344 77.894531 195.527344 L 101.140625 195.527344 C 101.859375 195.527344 102.398438 194.953125 102.398438 194.269531 L 102.398438 118.402344 C 102.433594 117.71875 101.859375 117.144531 101.140625 117.144531 Z M 60.738281 193.007812 L 40.050781 193.007812 L 40.050781 134.382812 L 60.738281 134.382812 Z M 61.996094 131.828125 L 38.753906 131.828125 C 38.035156 131.828125 37.496094 132.402344 37.496094 133.085938 L 37.496094 194.269531 C 37.496094 194.988281 38.070312 195.527344 38.753906 195.527344 L 61.996094 195.527344 C 62.714844 195.527344 63.253906 194.953125 63.253906 194.269531 L 63.253906 133.085938 C 63.292969 132.402344 62.714844 131.828125 61.996094 131.828125 "/>
</g>
</g>
</svg>
