<?xml version="1.0" encoding="UTF-8"?>
<svg xmlns="http://www.w3.org/2000/svg" xmlns:xlink="http://www.w3.org/1999/xlink" width="224.87999pt" height="225pt" viewBox="0 0 224.87999 225" version="1.2">
<defs>
<clipPath id="clip1">
  <path d="M 71.765625 128 L 104 128 L 104 191.386719 L 71.765625 191.386719 Z M 71.765625 128 "/>
</clipPath>
<clipPath id="clip2">
  <path d="M 122 103 L 154 103 L 154 191.386719 L 122 191.386719 Z M 122 103 "/>
</clipPath>
<clipPath id="clip3">
  <path d="M 172 33.613281 L 204.558594 33.613281 L 204.558594 191.386719 L 172 191.386719 Z M 172 33.613281 "/>
</clipPath>
<clipPath id="clip4">
  <path d="M 121 33.613281 L 153.109375 33.613281 L 153.109375 97 L 121 97 Z M 121 33.613281 "/>
</clipPath>
<clipPath id="clip5">
  <path d="M 70 33.613281 L 103 33.613281 L 103 122 L 70 122 Z M 70 33.613281 "/>
</clipPath>
<clipPath id="clip6">
  <path d="M 20.585938 33.613281 L 52 33.613281 L 52 191.386719 L 20.585938 191.386719 Z M 20.585938 33.613281 "/>
</clipPath>
</defs>
<g id="surface1">
<g clip-path="url(#clip1)" clip-rule="nonzero">
<path style=" stroke:none;fill-rule:nonzero;fill:rgb(24.308777%,29.40979%,44.309998%);fill-opacity:1;" d="M 100.222656 128.277344 L 74.925781 128.277344 C 73.183594 128.277344 71.765625 129.6875 71.765625 131.433594 L 71.765625 188.230469 C 71.765625 189.972656 73.183594 191.382812 74.925781 191.382812 L 100.222656 191.382812 C 101.964844 191.382812 103.382812 189.972656 103.382812 188.230469 L 103.382812 131.433594 C 103.382812 129.6875 101.964844 128.277344 100.222656 128.277344 Z M 100.222656 128.277344 "/>
</g>
<g clip-path="url(#clip2)" clip-rule="nonzero">
<path style=" stroke:none;fill-rule:nonzero;fill:rgb(24.308777%,29.40979%,44.309998%);fill-opacity:1;" d="M 150.808594 103.035156 L 125.515625 103.035156 C 123.769531 103.035156 122.351562 104.449219 122.351562 106.1875 L 122.351562 188.230469 C 122.351562 189.972656 123.769531 191.382812 125.515625 191.382812 L 150.808594 191.382812 C 152.558594 191.382812 153.96875 189.972656 153.96875 188.230469 L 153.96875 106.1875 C 153.96875 104.449219 152.558594 103.035156 150.808594 103.035156 Z M 150.808594 103.035156 "/>
</g>
<g clip-path="url(#clip3)" clip-rule="nonzero">
<path style=" stroke:none;fill-rule:nonzero;fill:rgb(24.308777%,29.40979%,44.309998%);fill-opacity:1;" d="M 201.394531 33.617188 L 176.101562 33.617188 C 174.355469 33.617188 172.941406 35.03125 172.941406 36.769531 L 172.941406 188.230469 C 172.941406 189.972656 174.355469 191.382812 176.101562 191.382812 L 201.394531 191.382812 C 203.144531 191.382812 204.558594 189.972656 204.558594 188.230469 L 204.558594 36.769531 C 204.558594 35.03125 203.144531 33.617188 201.394531 33.617188 Z M 201.394531 33.617188 "/>
</g>
<g clip-path="url(#clip4)" clip-rule="nonzero">
<path style=" stroke:none;fill-rule:nonzero;fill:rgb(30.589294%,73.329163%,69.018555%);fill-opacity:1;" d="M 124.65625 96.722656 L 149.949219 96.722656 C 151.695312 96.722656 153.109375 95.3125 153.109375 93.566406 L 153.109375 36.769531 C 153.109375 35.027344 151.695312 33.617188 149.949219 33.617188 L 124.65625 33.617188 C 122.910156 33.617188 121.492188 35.027344 121.492188 36.769531 L 121.492188 93.566406 C 121.492188 95.3125 122.910156 96.722656 124.65625 96.722656 Z M 124.65625 96.722656 "/>
</g>
<g clip-path="url(#clip5)" clip-rule="nonzero">
<path style=" stroke:none;fill-rule:nonzero;fill:rgb(30.589294%,73.329163%,69.018555%);fill-opacity:1;" d="M 74.066406 121.964844 L 99.359375 121.964844 C 101.105469 121.964844 102.523438 120.550781 102.523438 118.8125 L 102.523438 36.769531 C 102.523438 35.027344 101.105469 33.617188 99.359375 33.617188 L 74.066406 33.617188 C 72.320312 33.617188 70.90625 35.027344 70.90625 36.769531 L 70.90625 118.8125 C 70.90625 120.550781 72.320312 121.964844 74.066406 121.964844 Z M 74.066406 121.964844 "/>
</g>
<g clip-path="url(#clip6)" clip-rule="nonzero">
<path style=" stroke:none;fill-rule:nonzero;fill:rgb(30.589294%,73.329163%,69.018555%);fill-opacity:1;" d="M 23.480469 191.382812 L 48.773438 191.382812 C 50.523438 191.382812 51.933594 189.96875 51.933594 188.230469 L 51.933594 36.769531 C 51.933594 35.027344 50.523438 33.617188 48.773438 33.617188 L 23.480469 33.617188 C 21.730469 33.617188 20.316406 35.027344 20.316406 36.769531 L 20.316406 188.230469 C 20.316406 189.96875 21.730469 191.382812 23.480469 191.382812 Z M 23.480469 191.382812 "/>
</g>
</g>
</svg>
